HIERARCHY
ROOT root
{
	OFFSET 0.000000 0.000000 0.000000
	CHANNELS 6 Xposition Yposition Zposition Zrotation Yrotation Xrotation
	JOINT lhip
	{
		OFFSET 0.058581 -0.082280 -0.017664
		CHANNELS 3 Zrotation Yrotation Xrotation
		JOINT lknee
		{
			OFFSET 0.043451 -0.386469 0.008037
			CHANNELS 3 Zrotation Yrotation Xrotation
			JOINT lankle
			{
				OFFSET -0.014790 -0.426874 -0.037428
				CHANNELS 3 Zrotation Yrotation Xrotation
				JOINT ltoe
				{
					OFFSET 0.041054 -0.060286 0.122042
					CHANNELS 3 Zrotation Yrotation Xrotation
					End Site
					{
						OFFSET 0.000000 0.000000 0.000000
					}
				}
			}
		}
	}
	JOINT rhip
	{
		OFFSET -0.060310 -0.090513 -0.013543
		CHANNELS 3 Zrotation Yrotation Xrotation
		JOINT rknee
		{
			OFFSET -0.043257 -0.383688 -0.004843
			CHANNELS 3 Zrotation Yrotation Xrotation
			JOINT rankle
			{
				OFFSET 0.019056 -0.420046 -0.034562
				CHANNELS 3 Zrotation Yrotation Xrotation
				JOINT rtoe
				{
					OFFSET -0.034840 -0.062106 0.130323
					CHANNELS 3 Zrotation Yrotation Xrotation
					End Site
					{
						OFFSET 0.000000 0.000000 0.000000
					}
				}
			}
		}
	}
	JOINT lowerback
	{
		OFFSET 0.004439 0.124404 -0.038385
		CHANNELS 3 Zrotation Yrotation Xrotation
		JOINT upperback
		{
			OFFSET 0.004488 0.137956 0.026820
			CHANNELS 3 Zrotation Yrotation Xrotation
			JOINT chest
			{
				OFFSET -0.002265 0.056032 0.002855
				CHANNELS 3 Zrotation Yrotation Xrotation
				JOINT lowerneck
				{
					OFFSET -0.013390 0.211636 -0.033468
					CHANNELS 3 Zrotation Yrotation Xrotation
					JOINT upperneck
					{
						OFFSET 0.010113 0.088937 0.050410
						CHANNELS 3 Zrotation Yrotation Xrotation
						End Site
						{
							OFFSET 0.000000 0.000000 0.000000
						}
					}
				}
				JOINT lclavicle
				{
					OFFSET 0.071702 0.114000 -0.018898
					CHANNELS 3 Zrotation Yrotation Xrotation
					JOINT lshoulder
					{
						OFFSET 0.122921 0.045205 -0.019046
						CHANNELS 3 Zrotation Yrotation Xrotation
						JOINT lelbow
						{
							OFFSET 0.255332 -0.015649 -0.022946
							CHANNELS 3 Zrotation Yrotation Xrotation
							JOINT lwrist
							{
								OFFSET 0.265709 0.012698 -0.007375
								CHANNELS 3 Zrotation Yrotation Xrotation
								End Site
								{
									OFFSET 0.000000 0.000000 0.000000
								}
							}
						}
					}
				}
				JOINT rclavicle
				{
					OFFSET -0.082954 0.112472 -0.023707
					CHANNELS 3 Zrotation Yrotation Xrotation
					JOINT rshoulder
					{
						OFFSET -0.113228 0.046853 -0.008472
						CHANNELS 3 Zrotation Yrotation Xrotation
						JOINT relbow
						{
							OFFSET -0.260127 -0.014369 -0.031269
							CHANNELS 3 Zrotation Yrotation Xrotation
							JOINT rwrist
							{
								OFFSET -0.269108 0.006794 -0.006027
								CHANNELS 3 Zrotation Yrotation Xrotation
								End Site
								{
									OFFSET 0.000000 0.000000 0.000000
								}
							}
						}
					}
				}
			}
		}
	}
}
MOTION
Frames: 5
Frame Time: 0.033333
-0.373200 0.252053 0.997239 87.658045 1.846798 92.289349 1.814627 0.684171 -5.891055 -3.541881 -3.980675 13.507996 3.538649 7.304069 -14.223558 0.000000 -0.000000 0.000000 1.183796 -3.034722 -7.873412 -0.414772 -2.400038 15.604597 1.577580 -6.552765 -14.416773 0.000000 -0.000000 0.000000 -1.240295 0.947577 -1.596147 2.953073 -3.307771 0.258045 -0.522903 -2.054872 1.301111 0.288579 -4.873601 1.560734 -0.658926 -10.898700 3.063508 -17.317790 9.478321 -1.474597 -66.573538 -11.163919 14.394583 2.924415 -19.821614 21.083723 -11.156468 4.844129 -12.033842 16.336586 -6.636701 -4.516691 67.910397 5.853947 15.718707 -7.773699 17.340045 3.102794 19.818767 -0.253855 -25.244945 
-0.373242 0.251999 0.996938 87.702805 1.879707 92.328175 1.855749 0.582259 -5.895789 -3.605213 -3.849936 13.513652 3.531218 7.497170 -14.200359 0.000000 -0.000000 0.000000 1.274776 -2.728615 -7.717962 -0.562831 -1.823329 15.509368 1.638480 -6.475482 -14.889353 0.000000 -0.000000 0.000000 -1.188032 0.851193 -1.765361 2.886956 -3.299979 0.208341 -0.529902 -2.167711 1.386624 0.600260 -4.690780 1.523664 -1.015947 -10.880151 3.639483 -16.978848 9.156431 -0.767387 -66.910327 -11.319402 14.550724 3.662962 -20.118661 21.054348 -12.037006 4.394451 -12.168782 15.950339 -6.438531 -3.882330 68.406949 6.021829 16.351233 -7.884196 17.477024 2.911898 19.430268 0.928090 -25.433946 
-0.372977 0.252027 0.996696 87.626943 1.936030 92.309438 1.920378 0.707426 -5.901727 -3.669083 -3.687211 13.576785 3.663223 7.566870 -14.149105 0.000000 -0.000000 0.000000 1.320363 -2.701233 -7.675074 -0.548471 -1.870960 15.455799 1.414014 -6.459007 -14.786219 0.000000 -0.000000 0.000000 -1.183448 0.831761 -1.946935 2.952333 -3.374270 0.272053 -0.490632 -2.019174 1.226203 0.568758 -4.877603 2.261845 -0.928948 -10.828750 3.584943 -16.764722 8.680816 -0.311538 -67.215544 -11.394913 14.623150 3.936899 -20.233490 20.690501 -11.893983 4.844716 -12.817461 15.718946 -6.273170 -3.472654 68.575878 5.874541 16.219053 -8.065481 17.456430 3.050991 19.385265 1.097208 -25.512525 
-0.373020 0.252426 0.996664 87.563269 1.897927 92.362944 1.876232 0.796271 -6.034009 -3.795465 -3.249416 13.687062 3.837244 7.681537 -14.034979 0.000000 -0.000000 0.000000 1.250343 -2.739486 -7.723864 -0.575842 -1.656527 15.449660 1.557249 -6.367800 -14.798439 0.000000 -0.000000 0.000000 -1.110150 0.665910 -1.756019 2.967051 -3.512493 -0.055137 -0.557764 -1.968198 1.210879 0.593819 -4.776865 2.201391 -1.055573 -10.695954 3.839180 -16.831423 8.844302 -0.325557 -67.145049 -11.407823 14.601667 3.801557 -20.401887 20.933607 -11.989213 4.677967 -12.935732 15.826534 -6.407501 -3.455197 68.411113 5.830176 16.281633 -8.053396 17.561435 3.240734 19.378304 0.780436 -25.632046 
-0.372822 0.252750 0.996696 87.462415 1.926368 92.306491 1.855211 0.797772 -5.889850 -3.758584 -3.441898 13.552382 3.982720 7.720488 -13.947443 0.000000 -0.000000 0.000000 1.240942 -2.911042 -7.760614 -0.461176 -1.959449 15.558750 1.470314 -6.475518 -14.681833 0.000000 -0.000000 0.000000 -1.019303 0.625271 -1.694644 2.949066 -3.542569 -0.092367 -0.547860 -1.996639 1.197917 0.510715 -4.708027 2.260224 -1.019588 -10.468648 3.843054 -16.828227 8.811305 -0.224220 -67.169149 -11.437101 14.540660 3.784579 -20.477330 21.011227 -12.041036 4.768288 -12.980184 15.804529 -6.411948 -3.430195 68.345187 5.840378 16.145687 -8.007027 17.454984 3.286337 19.500621 0.775177 -25.666277 
